<?xml version="1.0" standalone="no"?>
<!DOCTYPE svg PUBLIC "-//W3C//DTD SVG 20010904//EN"
 "http://www.w3.org/TR/2001/REC-SVG-20010904/DTD/svg10.dtd">
<svg version="1.0" xmlns="http://www.w3.org/2000/svg"
 width="512.000000pt" height="512.000000pt" viewBox="0 0 512.000000 512.000000"
 preserveAspectRatio="xMidYMid meet">
<metadata>
Created by potrace 1.14, written by Peter Selinger 2001-2017
</metadata>
<g transform="translate(0.000000,512.000000) scale(0.100000,-0.100000)"
fill="#000000" stroke="none">
<path d="M1783 5101 c-111 -38 -200 -133 -248 -266 -14 -38 -25 -71 -25 -72 0
-32 0 -32 -27 -21 -16 6 -68 11 -118 11 -77 1 -98 -2 -146 -25 -217 -100 -269
-360 -118 -584 24 -35 26 -44 15 -60 -40 -59 -117 -229 -150 -329 -60 -187
-79 -329 -80 -590 l-1 -180 -36 -26 c-81 -60 -150 -169 -168 -266 -21 -108 4
-234 62 -322 l24 -37 -33 -109 c-39 -126 -97 -344 -113 -425 -35 -179 -35
-255 0 -330 38 -80 99 -152 187 -220 42 -33 82 -64 87 -69 6 -4 15 -10 20 -12
6 -2 40 -21 77 -42 56 -32 68 -43 69 -65 2 -27 2 -35 12 -107 24 -170 26 -210
12 -211 -111 -6 -238 -103 -293 -222 -22 -48 -26 -71 -26 -147 -1 -82 2 -97
31 -156 56 -113 150 -186 268 -209 44 -8 475 -10 1580 -8 l1520 3 67 33 c222
108 282 393 123 579 -69 81 -179 133 -282 133 l-54 0 6 48 c3 26 8 63 10 82 3
19 7 58 10 85 3 28 7 59 9 70 3 11 5 27 5 37 1 9 30 32 74 56 166 92 304 218
360 332 55 110 44 215 -59 600 -3 14 -24 83 -45 154 -38 125 -39 130 -22 150
20 23 44 72 64 126 17 48 21 839 5 872 -6 13 -23 29 -38 36 -25 12 -27 16 -27
87 0 67 2 75 19 75 10 0 27 12 38 28 18 25 19 45 18 237 -1 116 -5 215 -9 222
-4 6 -40 107 -81 225 -87 250 -92 263 -121 282 -34 22 -90 30 -116 16 -55 -29
-69 -53 -121 -217 -29 -90 -55 -163 -58 -163 -3 0 -28 30 -56 67 -60 82 -208
232 -289 295 -249 189 -539 311 -823 345 -125 15 -383 8 -509 -13 -29 -5 -34
-1 -66 48 -76 117 -174 179 -291 184 -49 2 -87 -2 -123 -15z"/>
</g>
</svg>
